# xmcd CD database file
#
# Track frame offsets:
#	150
#	19352
#	38325
#	57510
#
# Disc length: 1012 seconds
#
# Revision: 0
# Processed by: cddbd v1.5PL3 Copyright (c) Steve Scherf et al.
# Submitted via: CDex 1.51
#
DISCID=2b03f204
DTITLE=Various Artist - 秘境探険ファム&イーリー エンディング・テーマ/キャラクター・ソング
DYEAR=1900
DGENRE=アニメ
TTITLE0=Dear Myself ・私だけのタイムカプセル・
TTITLE1=恋のトラップ・ラップ
TTITLE2=Dear Myself ・私だけのタイムカプセル・ (OFF Vocal Version)
TTITLE3=恋のトラップ・ラップ (Off Vocal Version)
EXTD=
EXTT0=
EXTT1=
EXTT2=
EXTT3=
PLAYORDER=
